<?xml version="1.0" encoding="UTF-8" standalone="no"?>
<!-- Created with Inkscape (http://www.inkscape.org/) -->

<svg
   xmlns:dc="http://purl.org/dc/elements/1.1/"
   xmlns:cc="http://creativecommons.org/ns#"
   xmlns:rdf="http://www.w3.org/1999/02/22-rdf-syntax-ns#"
   xmlns:svg="http://www.w3.org/2000/svg"
   xmlns="http://www.w3.org/2000/svg"
   xmlns:sodipodi="http://sodipodi.sourceforge.net/DTD/sodipodi-0.dtd"
   xmlns:inkscape="http://www.inkscape.org/namespaces/inkscape"
   width="154.00002"
   height="33.333355"
   viewBox="0 0 40.745836 8.8194504"
   version="1.1"
   id="svg8"
   sodipodi:docname="logo.svg"
   inkscape:version="0.92.1 r15371">
  <defs
     id="defs2" />
  <sodipodi:namedview
     id="base"
     pagecolor="#ffffff"
     bordercolor="#666666"
     borderopacity="1.0"
     inkscape:pageopacity="0.0"
     inkscape:pageshadow="2"
     inkscape:zoom="15.839192"
     inkscape:cx="24.946193"
     inkscape:cy="20.246948"
     inkscape:document-units="px"
     inkscape:current-layer="layer1"
     showgrid="false"
     inkscape:window-width="1920"
     inkscape:window-height="1017"
     inkscape:window-x="-8"
     inkscape:window-y="-8"
     inkscape:window-maximized="1"
     units="px"
     fit-margin-top="0"
     fit-margin-left="0"
     fit-margin-right="0"
     fit-margin-bottom="0" />
  <metadata
     id="metadata5">
    <rdf:RDF>
      <cc:Work
         rdf:about="">
        <dc:format>image/svg+xml</dc:format>
        <dc:type
           rdf:resource="http://purl.org/dc/dcmitype/StillImage" />
        <dc:title></dc:title>
      </cc:Work>
    </rdf:RDF>
  </metadata>
  <g
     inkscape:label="Layer 1"
     inkscape:groupmode="layer"
     id="layer1"
     transform="translate(-93.775893,-104.35813)">
    <path
       style="fill:#00bef2;stroke-width:0.35277778"
       d="m 93.782807,108.79434 v -4.40973 h 5.46806 5.468043 v 4.40973 4.40972 h -5.468043 -5.46806 z"
       id="path4570"
       inkscape:connector-curvature="0" />
    <path
       style="fill:#ffffff;stroke-width:0.35277778"
       d="m 100.31985,106.89561 c -0.18478,-0.005 -0.463488,0.0264 -0.820615,0.0444 -0.12753,0.006 -0.26488,0.0113 -0.41186,0.0119 -0.97014,0.004 -1.43641,-0.14846 -1.46709,0.29507 -0.0213,0.3084 0.71545,0.20543 1.07538,0.53485 0.22211,0.20328 0.12882,0.6571 0.13953,1.21698 0.0183,0.95647 0.21473,1.6552 0.40876,1.6552 0.19403,0 0.12816,-0.8941 0.12816,-1.85002 0,-0.34384 -0.009,-0.7968 0.0971,-0.95498 0.31429,-0.46686 1.025215,-0.12518 1.109485,-0.77618 0.0169,-0.13015 -0.0741,-0.17209 -0.2589,-0.17725 z"
       id="path64"
       inkscape:connector-curvature="0" />
    <path
       id="path22"
       style="fill:#ffffff;stroke-width:0.35277778"
       d="m 131.87589,108.76786 v -1.94028 l 1.49931,0.0529 c 1.05272,0.0371 1.21034,0.0966 0.52917,0.19982 -1.23997,0.18784 -1.38682,1.48599 -0.17639,1.55925 l 0.79375,0.048 -0.79375,0.15288 c -1.17697,0.2267 -1.04556,1.42992 0.17639,1.61503 0.68117,0.10318 0.52355,0.1627 -0.52917,0.19982 l -1.49931,0.0528 z m -1.94027,-0.70556 c 0,-0.35572 -0.19844,-0.7129 -0.44098,-0.79375 -0.27928,-0.0931 -0.44097,0.19795 -0.44097,0.79375 0,0.5958 0.16169,0.88685 0.44097,0.79375 0.24254,-0.0808 0.44098,-0.43803 0.44098,-0.79375 z m -1.94028,0.70556 c 0,-1.9086 0.0168,-1.94028 1.02948,-1.94028 0.56621,0 1.28059,0.0964 1.5875,0.21413 0.61725,0.23686 0.75661,1.38538 0.20916,1.72372 -0.21389,0.1322 -0.12995,0.5497 0.21696,1.07916 0.73681,1.1245 -0.008,1.18606 -1.16828,0.0965 l -0.81649,-0.76704 v 0.76705 c 0,0.44663 -0.22104,0.76704 -0.52917,0.76704 -0.40623,0 -0.52916,-0.45077 -0.52916,-1.94027 z m -3.45722,1.51694 c -0.64049,-0.64048 -0.55426,-3.45722 0.10583,-3.45722 0.39093,0 0.52917,0.40926 0.52917,1.56668 0,1.62093 0.55417,2.41504 1.09237,1.56532 0.16936,-0.26739 0.31037,-1.08148 0.31334,-1.80908 0.003,-0.72761 0.16415,-1.32292 0.35817,-1.32292 0.19403,0 0.35278,0.77676 0.35278,1.72614 0,1.24859 -0.15438,1.78539 -0.55802,1.94028 -0.87275,0.33491 -1.73143,0.25302 -2.19364,-0.2092 z m -5.58743,-1.51694 c -0.11168,-0.29104 -0.26545,-0.52917 -0.34171,-0.52917 -0.0763,0 -0.13864,0.23813 -0.13864,0.52917 0,0.29104 0.15376,0.52916 0.3417,0.52916 0.18794,0 0.25033,-0.23812 0.13865,-0.52916 z m -5.06646,0 v -1.94028 l 1.4993,0.0529 c 1.05272,0.0371 1.21034,0.0966 0.52917,0.19982 -1.23997,0.18784 -1.38682,1.48599 -0.17639,1.55925 l 0.79375,0.048 -0.79375,0.15288 c -1.21963,0.23492 -1.06604,1.51493 0.18178,1.51493 0.85349,0 1.05486,-0.22336 1.60968,-1.78549 0.80493,-2.26634 1.53915,-2.20537 2.38429,0.19799 0.34114,0.97014 0.63257,1.55986 0.6476,1.3105 0.0208,-0.34497 0.1978,-0.36216 0.74019,-0.0719 0.69169,0.37018 1.40382,0.21791 1.40382,-0.30016 0,-0.14003 -0.47625,-0.43438 -1.05833,-0.65409 -1.14123,-0.43076 -1.36351,-1.17943 -0.5505,-1.85417 0.67025,-0.55626 2.39024,-0.33537 2.60913,0.33508 0.14765,0.45221 0.0881,0.4593 -0.40927,0.0487 -0.61421,-0.50699 -1.64936,-0.32311 -1.64936,0.29298 0,0.20012 0.29806,0.36385 0.66236,0.36385 0.97983,0 1.67841,0.97673 1.21965,1.70527 -0.49244,0.78202 -3.94887,0.95168 -4.23431,0.20783 -0.25315,-0.6597 -1.04582,-0.64317 -1.30305,0.0272 -0.14664,0.38212 -0.74531,0.52916 -2.15441,0.52916 h -1.95135 z m -1.76389,-0.70556 c 0,-0.54876 -0.19991,-0.88194 -0.52917,-0.88194 -0.32926,0 -0.52917,0.33318 -0.52917,0.88194 0,0.54877 0.19991,0.88195 0.52917,0.88195 0.32926,0 0.52917,-0.33318 0.52917,-0.88195 z m -1.76389,0.70556 v -1.94028 h 1.24579 c 1.39597,0 1.94,0.74793 1.29513,1.78054 -0.30203,0.48362 -0.27417,0.72707 0.12071,1.05479 0.66271,0.55 0.65664,1.04522 -0.0128,1.04522 -0.2894,0 -0.72446,-0.3175 -0.9668,-0.70555 -0.24235,-0.38806 -0.56119,-0.70556 -0.70855,-0.70556 -0.14735,0 -0.26792,0.3175 -0.26792,0.70556 0,0.38805 -0.15875,0.70555 -0.35277,0.70555 -0.19403,0 -0.35278,-0.87312 -0.35278,-1.94027 z"
       inkscape:connector-curvature="0" />
  </g>
</svg>
